<svg width="30" height="30" viewBox="0 0 30 30" fill="none" xmlns="http://www.w3.org/2000/svg">
<path fill-rule="evenodd" clip-rule="evenodd" d="M8.9535 0.421496C10.5175 0.349496 11.0162 0.333496 15.0002 0.333496C18.9842 0.333496 19.4828 0.350829 21.0455 0.421496C22.6082 0.492163 23.6748 0.741496 24.6082 1.10283C25.5855 1.47216 26.4722 2.0495 27.2055 2.79616C27.9522 3.52816 28.5282 4.4135 28.8962 5.39216C29.2588 6.3255 29.5068 7.39216 29.5788 8.95216C29.6508 10.5188 29.6668 11.0175 29.6668 15.0002C29.6668 18.9842 29.6495 19.4828 29.5788 21.0468C29.5082 22.6068 29.2588 23.6735 28.8962 24.6068C28.5282 25.5856 27.9512 26.4724 27.2055 27.2055C26.4722 27.9522 25.5855 28.5282 24.6082 28.8962C23.6748 29.2588 22.6082 29.5068 21.0482 29.5788C19.4828 29.6508 18.9842 29.6668 15.0002 29.6668C11.0162 29.6668 10.5175 29.6495 8.9535 29.5788C7.3935 29.5082 6.32683 29.2588 5.3935 28.8962C4.41472 28.5281 3.52792 27.9512 2.79483 27.2055C2.04867 26.4731 1.47125 25.5867 1.10283 24.6082C0.741496 23.6748 0.493496 22.6082 0.421496 21.0482C0.349496 19.4815 0.333496 18.9828 0.333496 15.0002C0.333496 11.0162 0.350829 10.5175 0.421496 8.95483C0.492163 7.39216 0.741496 6.3255 1.10283 5.39216C1.47179 4.4136 2.04965 3.52725 2.79616 2.79483C3.52822 2.04883 4.41413 1.47142 5.39216 1.10283C6.3255 0.741496 7.39216 0.493496 8.95216 0.421496H8.9535ZM20.9268 3.0615C19.3802 2.99083 18.9162 2.97616 15.0002 2.97616C11.0842 2.97616 10.6202 2.99083 9.0735 3.0615C7.64283 3.12683 6.86683 3.3655 6.3495 3.56683C5.6655 3.8335 5.17616 4.1495 4.66283 4.66283C4.17622 5.13623 3.80174 5.71254 3.56683 6.3495C3.3655 6.86683 3.12683 7.64283 3.0615 9.0735C2.99083 10.6202 2.97616 11.0842 2.97616 15.0002C2.97616 18.9162 2.99083 19.3802 3.0615 20.9268C3.12683 22.3575 3.3655 23.1335 3.56683 23.6508C3.8015 24.2868 4.17616 24.8642 4.66283 25.3375C5.13616 25.8242 5.7135 26.1988 6.3495 26.4335C6.86683 26.6348 7.64283 26.8735 9.0735 26.9388C10.6202 27.0095 11.0828 27.0242 15.0002 27.0242C18.9175 27.0242 19.3802 27.0095 20.9268 26.9388C22.3575 26.8735 23.1335 26.6348 23.6508 26.4335C24.3348 26.1668 24.8242 25.8508 25.3375 25.3375C25.8242 24.8642 26.1988 24.2868 26.4335 23.6508C26.6348 23.1335 26.8735 22.3575 26.9388 20.9268C27.0095 19.3802 27.0242 18.9162 27.0242 15.0002C27.0242 11.0842 27.0095 10.6202 26.9388 9.0735C26.8735 7.64283 26.6348 6.86683 26.4335 6.3495C26.1668 5.6655 25.8508 5.17616 25.3375 4.66283C24.8641 4.17626 24.2878 3.80178 23.6508 3.56683C23.1335 3.3655 22.3575 3.12683 20.9268 3.0615ZM13.1268 19.5215C14.173 19.957 15.338 20.0158 16.4227 19.6878C17.5075 19.3598 18.4447 18.6654 19.0743 17.7232C19.7039 16.7809 19.9869 15.6493 19.8749 14.5216C19.7629 13.3939 19.2628 12.3401 18.4602 11.5402C17.9485 11.0288 17.3298 10.6372 16.6486 10.3937C15.9674 10.1501 15.2407 10.0606 14.5208 10.1317C13.8009 10.2027 13.1057 10.4324 12.4852 10.8043C11.8648 11.1763 11.3345 11.6812 10.9326 12.2826C10.5306 12.8841 10.2671 13.5672 10.1609 14.2828C10.0546 14.9983 10.1084 15.7286 10.3182 16.4209C10.5281 17.1131 10.8888 17.7503 11.3745 18.2865C11.8601 18.8226 12.4586 19.2444 13.1268 19.5215ZM9.6695 9.6695C10.3695 8.96946 11.2006 8.41417 12.1152 8.03531C13.0299 7.65646 14.0102 7.46146 15.0002 7.46146C15.9902 7.46146 16.9705 7.65646 17.8851 8.03531C18.7997 8.41417 19.6308 8.96946 20.3308 9.6695C21.0309 10.3695 21.5862 11.2006 21.965 12.1152C22.3439 13.0299 22.5389 14.0102 22.5389 15.0002C22.5389 15.9902 22.3439 16.9705 21.965 17.8851C21.5862 18.7997 21.0309 19.6308 20.3308 20.3308C18.917 21.7446 16.9996 22.5389 15.0002 22.5389C13.0008 22.5389 11.0833 21.7446 9.6695 20.3308C8.25572 18.917 7.46146 16.9996 7.46146 15.0002C7.46146 13.0008 8.25572 11.0833 9.6695 9.6695ZM24.2108 8.58416C24.3843 8.42052 24.5232 8.22374 24.6192 8.00546C24.7153 7.78719 24.7666 7.55185 24.7701 7.3134C24.7735 7.07495 24.7291 6.83823 24.6395 6.61724C24.5498 6.39626 24.4167 6.19551 24.2481 6.02688C24.0795 5.85825 23.8787 5.72517 23.6578 5.63552C23.4368 5.54587 23.2 5.50146 22.9616 5.50494C22.7231 5.50842 22.4878 5.5597 22.2695 5.65576C22.0513 5.75181 21.8545 5.89069 21.6908 6.06416C21.3726 6.40154 21.1983 6.84966 21.2051 7.3134C21.2119 7.77715 21.3991 8.22 21.727 8.54795C22.055 8.87591 22.4978 9.06313 22.9616 9.06989C23.4253 9.07666 23.8735 8.90242 24.2108 8.58416Z" fill="#52B5EA"/>
</svg>
