<svg width="22" height="22" viewBox="0 0 22 22" fill="none" xmlns="http://www.w3.org/2000/svg">
<path fill-rule="evenodd" clip-rule="evenodd" d="M6.465 0.0662441C7.638 0.0122441 8.012 0.000244141 11 0.000244141C13.988 0.000244141 14.362 0.0132441 15.534 0.0662441C16.706 0.119244 17.506 0.306244 18.206 0.577244C18.939 0.854244 19.604 1.28724 20.154 1.84724C20.714 2.39624 21.146 3.06024 21.422 3.79424C21.694 4.49424 21.88 5.29424 21.934 6.46424C21.988 7.63924 22 8.01324 22 11.0002C22 13.9882 21.987 14.3622 21.934 15.5352C21.881 16.7052 21.694 17.5052 21.422 18.2052C21.146 18.9393 20.7133 19.6044 20.154 20.1542C19.604 20.7142 18.939 21.1462 18.206 21.4222C17.506 21.6942 16.706 21.8802 15.536 21.9342C14.362 21.9882 13.988 22.0002 11 22.0002C8.012 22.0002 7.638 21.9872 6.465 21.9342C5.295 21.8812 4.495 21.6942 3.795 21.4222C3.06092 21.1462 2.39582 20.7135 1.846 20.1542C1.28638 19.6049 0.853315 18.9401 0.577 18.2062C0.306 17.5062 0.12 16.7062 0.066 15.5362C0.012 14.3612 0 13.9872 0 11.0002C0 8.01224 0.013 7.63824 0.066 6.46624C0.119 5.29424 0.306 4.49424 0.577 3.79424C0.853723 3.06033 1.28712 2.39556 1.847 1.84624C2.39604 1.28675 3.06047 0.853688 3.794 0.577244C4.494 0.306244 5.294 0.120244 6.464 0.0662441H6.465ZM15.445 2.04624C14.285 1.99324 13.937 1.98224 11 1.98224C8.063 1.98224 7.715 1.99324 6.555 2.04624C5.482 2.09524 4.9 2.27424 4.512 2.42524C3.999 2.62524 3.632 2.86224 3.247 3.24724C2.88205 3.6023 2.60118 4.03453 2.425 4.51224C2.274 4.90024 2.095 5.48224 2.046 6.55524C1.993 7.71524 1.982 8.06324 1.982 11.0002C1.982 13.9372 1.993 14.2852 2.046 15.4452C2.095 16.5182 2.274 17.1002 2.425 17.4882C2.601 17.9652 2.882 18.3982 3.247 18.7532C3.602 19.1182 4.035 19.3992 4.512 19.5752C4.9 19.7262 5.482 19.9052 6.555 19.9542C7.715 20.0072 8.062 20.0182 11 20.0182C13.938 20.0182 14.285 20.0072 15.445 19.9542C16.518 19.9052 17.1 19.7262 17.488 19.5752C18.001 19.3752 18.368 19.1382 18.753 18.7532C19.118 18.3982 19.399 17.9652 19.575 17.4882C19.726 17.1002 19.905 16.5182 19.954 15.4452C20.007 14.2852 20.018 13.9372 20.018 11.0002C20.018 8.06324 20.007 7.71524 19.954 6.55524C19.905 5.48224 19.726 4.90024 19.575 4.51224C19.375 3.99924 19.138 3.63224 18.753 3.24724C18.3979 2.88232 17.9657 2.60145 17.488 2.42524C17.1 2.27424 16.518 2.09524 15.445 2.04624V2.04624ZM9.595 14.3912C10.3797 14.7179 11.2534 14.762 12.0669 14.516C12.8805 14.27 13.5834 13.7492 14.0556 13.0425C14.5278 12.3358 14.7401 11.4871 14.656 10.6413C14.572 9.79558 14.197 9.00522 13.595 8.40524C13.2112 8.02172 12.7472 7.72806 12.2363 7.54539C11.7255 7.36273 11.1804 7.2956 10.6405 7.34886C10.1006 7.40211 9.57915 7.57442 9.1138 7.85337C8.64846 8.13233 8.25074 8.51099 7.9493 8.9621C7.64786 9.4132 7.45019 9.92553 7.37052 10.4622C7.29084 10.9989 7.33115 11.5465 7.48854 12.0658C7.64593 12.585 7.91648 13.0629 8.28072 13.465C8.64496 13.8671 9.09382 14.1834 9.595 14.3912ZM7.002 7.00224C7.52702 6.47722 8.15032 6.06075 8.8363 5.77661C9.52228 5.49246 10.2575 5.34622 11 5.34622C11.7425 5.34622 12.4777 5.49246 13.1637 5.77661C13.8497 6.06075 14.473 6.47722 14.998 7.00224C15.523 7.52727 15.9395 8.15056 16.2236 8.83654C16.5078 9.52252 16.654 10.2577 16.654 11.0002C16.654 11.7427 16.5078 12.478 16.2236 13.1639C15.9395 13.8499 15.523 14.4732 14.998 14.9982C13.9377 16.0586 12.4995 16.6543 11 16.6543C9.50046 16.6543 8.06234 16.0586 7.002 14.9982C5.94166 13.9379 5.34597 12.4998 5.34597 11.0002C5.34597 9.5007 5.94166 8.06258 7.002 7.00224V7.00224ZM17.908 6.18824C18.0381 6.06551 18.1423 5.91793 18.2143 5.75422C18.2863 5.59051 18.3248 5.41401 18.3274 5.23517C18.33 5.05634 18.2967 4.87879 18.2295 4.71305C18.1622 4.54732 18.0624 4.39675 17.936 4.27028C17.8095 4.14381 17.6589 4.044 17.4932 3.97676C17.3275 3.90952 17.1499 3.87622 16.9711 3.87883C16.7922 3.88143 16.6157 3.9199 16.452 3.99194C16.2883 4.06398 16.1407 4.16814 16.018 4.29824C15.7793 4.55127 15.6486 4.88737 15.6537 5.23517C15.6588 5.58298 15.7992 5.91512 16.0452 6.16109C16.2911 6.40705 16.6233 6.54747 16.9711 6.55254C17.3189 6.55761 17.655 6.42693 17.908 6.18824V6.18824Z" fill="#52B5EA"/>
</svg>
