<svg width="28" height="28" viewBox="0 0 28 28" fill="none" xmlns="http://www.w3.org/2000/svg">
<path d="M23.4641 22.0958C23.4641 22.4931 23.3759 22.9015 23.1882 23.2988C23.0006 23.6961 22.7578 24.0713 22.4378 24.4245C21.897 25.0205 21.301 25.4509 20.6278 25.7268C19.9656 26.0027 19.2482 26.1462 18.4757 26.1462C17.3499 26.1462 16.147 25.8813 14.8778 25.3405C13.6086 24.7997 12.3394 24.0713 11.0812 23.1553C9.81203 22.2282 8.60906 21.2018 7.46127 20.0651C6.32451 18.9173 5.29812 17.7143 4.38209 16.4562C3.4771 15.198 2.74869 13.9398 2.21894 12.6927C1.68919 11.4346 1.42432 10.2316 1.42432 9.0838C1.42432 8.33332 1.55675 7.61595 1.82163 6.95376C2.0865 6.28054 2.50589 5.66249 3.09082 5.11067C3.79716 4.41537 4.56971 4.07324 5.38641 4.07324C5.69543 4.07324 6.00445 4.13946 6.28036 4.2719C6.56731 4.40434 6.82115 4.60299 7.01981 4.88994L9.58027 8.49887C9.77892 8.77478 9.9224 9.02862 10.0217 9.27142C10.1211 9.50319 10.1762 9.73495 10.1762 9.94464C10.1762 10.2095 10.099 10.4744 9.94447 10.7282C9.801 10.9821 9.5913 11.2469 9.32643 11.5118L8.48766 12.3837C8.36626 12.5051 8.31107 12.6486 8.31107 12.8252C8.31107 12.9135 8.32211 12.9907 8.34418 13.079C8.37729 13.1673 8.4104 13.2335 8.43248 13.2997C8.63113 13.6639 8.97326 14.1385 9.45887 14.7124C9.95551 15.2863 10.4853 15.8712 11.0592 16.4562C11.6551 17.0411 12.229 17.5819 12.814 18.0785C13.3878 18.5641 13.8624 18.8952 14.2377 19.0939C14.2928 19.116 14.3591 19.1491 14.4363 19.1822C14.5246 19.2153 14.6129 19.2263 14.7122 19.2263C14.8998 19.2263 15.0433 19.1601 15.1647 19.0387L16.0035 18.211C16.2794 17.935 16.5443 17.7254 16.7981 17.5929C17.052 17.4384 17.3058 17.3612 17.5817 17.3612C17.7914 17.3612 18.0121 17.4053 18.2549 17.5046C18.4977 17.604 18.7516 17.7474 19.0275 17.935L22.6806 20.5286C22.9675 20.7273 23.1662 20.959 23.2876 21.235C23.3979 21.5109 23.4641 21.7868 23.4641 22.0958Z" stroke="#52B5EA" stroke-width="1.58925" stroke-miterlimit="10"/>
<path d="M19.6347 11.7988C19.6347 11.1366 19.116 10.1213 18.3435 9.29352C17.6371 8.532 16.699 7.93604 15.772 7.93604" stroke="#52B5EA" stroke-width="1.58925" stroke-linecap="round" stroke-linejoin="round"/>
<path d="M23.4975 11.7988C23.4975 7.52766 20.0431 4.07324 15.772 4.07324" stroke="#52B5EA" stroke-width="1.58925" stroke-linecap="round" stroke-linejoin="round"/>
</svg>
