<svg width="32" height="32" viewBox="0 0 32 32" fill="none" xmlns="http://www.w3.org/2000/svg">
<path fill-rule="evenodd" clip-rule="evenodd" d="M9.9535 1.4215C11.5175 1.3495 12.0162 1.3335 16.0002 1.3335C19.9842 1.3335 20.4828 1.35083 22.0455 1.4215C23.6082 1.49216 24.6748 1.7415 25.6082 2.10283C26.5855 2.47216 27.4722 3.0495 28.2055 3.79616C28.9522 4.52816 29.5282 5.4135 29.8962 6.39216C30.2588 7.3255 30.5068 8.39216 30.5788 9.95216C30.6508 11.5188 30.6668 12.0175 30.6668 16.0002C30.6668 19.9842 30.6495 20.4828 30.5788 22.0468C30.5082 23.6068 30.2588 24.6735 29.8962 25.6068C29.5282 26.5856 28.9512 27.4724 28.2055 28.2055C27.4722 28.9522 26.5855 29.5282 25.6082 29.8962C24.6748 30.2588 23.6082 30.5068 22.0482 30.5788C20.4828 30.6508 19.9842 30.6668 16.0002 30.6668C12.0162 30.6668 11.5175 30.6495 9.9535 30.5788C8.3935 30.5082 7.32683 30.2588 6.3935 29.8962C5.41472 29.5281 4.52792 28.9512 3.79483 28.2055C3.04867 27.4731 2.47125 26.5867 2.10283 25.6082C1.7415 24.6748 1.4935 23.6082 1.4215 22.0482C1.3495 20.4815 1.3335 19.9828 1.3335 16.0002C1.3335 12.0162 1.35083 11.5175 1.4215 9.95483C1.49216 8.39216 1.7415 7.3255 2.10283 6.39216C2.47179 5.4136 3.04965 4.52725 3.79616 3.79483C4.52822 3.04883 5.41413 2.47142 6.39216 2.10283C7.3255 1.7415 8.39216 1.4935 9.95216 1.4215H9.9535ZM21.9268 4.0615C20.3802 3.99083 19.9162 3.97616 16.0002 3.97616C12.0842 3.97616 11.6202 3.99083 10.0735 4.0615C8.64283 4.12683 7.86683 4.3655 7.3495 4.56683C6.6655 4.8335 6.17616 5.1495 5.66283 5.66283C5.17622 6.13623 4.80174 6.71254 4.56683 7.3495C4.3655 7.86683 4.12683 8.64283 4.0615 10.0735C3.99083 11.6202 3.97616 12.0842 3.97616 16.0002C3.97616 19.9162 3.99083 20.3802 4.0615 21.9268C4.12683 23.3575 4.3655 24.1335 4.56683 24.6508C4.8015 25.2868 5.17616 25.8642 5.66283 26.3375C6.13616 26.8242 6.7135 27.1988 7.3495 27.4335C7.86683 27.6348 8.64283 27.8735 10.0735 27.9388C11.6202 28.0095 12.0828 28.0242 16.0002 28.0242C19.9175 28.0242 20.3802 28.0095 21.9268 27.9388C23.3575 27.8735 24.1335 27.6348 24.6508 27.4335C25.3348 27.1668 25.8242 26.8508 26.3375 26.3375C26.8242 25.8642 27.1988 25.2868 27.4335 24.6508C27.6348 24.1335 27.8735 23.3575 27.9388 21.9268C28.0095 20.3802 28.0242 19.9162 28.0242 16.0002C28.0242 12.0842 28.0095 11.6202 27.9388 10.0735C27.8735 8.64283 27.6348 7.86683 27.4335 7.3495C27.1668 6.6655 26.8508 6.17616 26.3375 5.66283C25.8641 5.17626 25.2878 4.80178 24.6508 4.56683C24.1335 4.3655 23.3575 4.12683 21.9268 4.0615V4.0615ZM14.1268 20.5215C15.173 20.957 16.338 21.0158 17.4227 20.6878C18.5075 20.3598 19.4447 19.6654 20.0743 18.7232C20.7039 17.7809 20.9869 16.6493 20.8749 15.5216C20.7629 14.3939 20.2628 13.3401 19.4602 12.5402C18.9485 12.0288 18.3298 11.6372 17.6486 11.3937C16.9674 11.1501 16.2407 11.0606 15.5208 11.1317C14.8009 11.2027 14.1057 11.4324 13.4852 11.8043C12.8648 12.1763 12.3345 12.6812 11.9326 13.2826C11.5306 13.8841 11.2671 14.5672 11.1609 15.2828C11.0546 15.9983 11.1084 16.7286 11.3182 17.4209C11.5281 18.1132 11.8888 18.7503 12.3745 19.2865C12.8601 19.8226 13.4586 20.2444 14.1268 20.5215ZM10.6695 10.6695C11.3695 9.96946 12.2006 9.41417 13.1152 9.03531C14.0299 8.65646 15.0102 8.46146 16.0002 8.46146C16.9902 8.46146 17.9705 8.65646 18.8851 9.03531C19.7997 9.41417 20.6308 9.96946 21.3308 10.6695C22.0309 11.3695 22.5862 12.2006 22.965 13.1152C23.3439 14.0299 23.5389 15.0102 23.5389 16.0002C23.5389 16.9902 23.3439 17.9705 22.965 18.8851C22.5862 19.7997 22.0309 20.6308 21.3308 21.3308C19.917 22.7446 17.9996 23.5389 16.0002 23.5389C14.0008 23.5389 12.0833 22.7446 10.6695 21.3308C9.25572 19.917 8.46146 17.9996 8.46146 16.0002C8.46146 14.0008 9.25572 12.0833 10.6695 10.6695V10.6695ZM25.2108 9.58416C25.3843 9.42052 25.5232 9.22374 25.6192 9.00546C25.7153 8.78719 25.7666 8.55185 25.7701 8.3134C25.7735 8.07495 25.7291 7.83823 25.6395 7.61724C25.5498 7.39626 25.4167 7.19551 25.2481 7.02688C25.0795 6.85825 24.8787 6.72517 24.6578 6.63552C24.4368 6.54587 24.2 6.50146 23.9616 6.50494C23.7231 6.50842 23.4878 6.5597 23.2695 6.65576C23.0513 6.75181 22.8545 6.89069 22.6908 7.06416C22.3726 7.40154 22.1983 7.84966 22.2051 8.3134C22.2119 8.77715 22.3991 9.22 22.727 9.54795C23.055 9.87591 23.4978 10.0631 23.9616 10.0699C24.4253 10.0767 24.8735 9.90242 25.2108 9.58416V9.58416Z" fill="#52B5EA"/>
</svg>
